<mxfile host="Electron" agent="Mozilla/5.0 (Windows NT 10.0; Win64; x64) AppleWebKit/537.36 (KHTML, like Gecko) draw.io/24.7.8 Chrome/128.0.6613.36 Electron/32.0.1 Safari/537.36" version="24.7.8">
  <diagram name="Seite-1" id="-9Eh4Bnf3c7chesQ3zc5">
    <mxGraphModel dx="1195" dy="756" grid="1" gridSize="10" guides="1" tooltips="1" connect="1" arrows="1" fold="1" page="1" pageScale="1" pageWidth="827" pageHeight="1169" math="0" shadow="0">
      <root>
        <mxCell id="0" />
        <mxCell id="1" parent="0" />
        <mxCell id="O6znISRpKtvkZBTkOn_e-1" value="JDK" style="rounded=0;whiteSpace=wrap;html=1;verticalAlign=top;" vertex="1" parent="1">
          <mxGeometry x="100" y="120" width="560" height="470" as="geometry" />
        </mxCell>
        <mxCell id="O6znISRpKtvkZBTkOn_e-2" value="java.base Modul" style="rounded=0;whiteSpace=wrap;html=1;verticalAlign=top;fillColor=#eeeeee;strokeColor=#36393d;" vertex="1" parent="1">
          <mxGeometry x="140" y="160" width="490" height="190" as="geometry" />
        </mxCell>
        <mxCell id="O6znISRpKtvkZBTkOn_e-3" value="java.desktop" style="rounded=0;whiteSpace=wrap;html=1;verticalAlign=top;" vertex="1" parent="1">
          <mxGeometry x="420" y="380" width="210" height="160" as="geometry" />
        </mxCell>
        <mxCell id="O6znISRpKtvkZBTkOn_e-4" value="Module" style="rounded=0;whiteSpace=wrap;html=1;verticalAlign=top;" vertex="1" parent="1">
          <mxGeometry x="140" y="370" width="210" height="160" as="geometry" />
        </mxCell>
        <mxCell id="O6znISRpKtvkZBTkOn_e-5" value="Module" style="rounded=0;whiteSpace=wrap;html=1;verticalAlign=top;" vertex="1" parent="1">
          <mxGeometry x="150" y="380" width="210" height="160" as="geometry" />
        </mxCell>
        <mxCell id="O6znISRpKtvkZBTkOn_e-6" value="Module" style="rounded=0;whiteSpace=wrap;html=1;verticalAlign=top;" vertex="1" parent="1">
          <mxGeometry x="160" y="390" width="210" height="160" as="geometry" />
        </mxCell>
        <mxCell id="O6znISRpKtvkZBTkOn_e-7" value="java.io Package" style="rounded=0;whiteSpace=wrap;html=1;verticalAlign=top;fillColor=#f9f7ed;strokeColor=#36393d;" vertex="1" parent="1">
          <mxGeometry x="170" y="195" width="150" height="135" as="geometry" />
        </mxCell>
        <mxCell id="O6znISRpKtvkZBTkOn_e-8" value="java.util Package" style="rounded=0;whiteSpace=wrap;html=1;verticalAlign=top;fillColor=#f9f7ed;strokeColor=#36393d;" vertex="1" parent="1">
          <mxGeometry x="440" y="195" width="160" height="120" as="geometry" />
        </mxCell>
        <mxCell id="O6znISRpKtvkZBTkOn_e-10" value="File (Klasse)" style="swimlane;fontStyle=1;align=center;verticalAlign=top;childLayout=stackLayout;horizontal=1;startSize=26;horizontalStack=0;resizeParent=1;resizeParentMax=0;resizeLast=0;collapsible=1;marginBottom=0;whiteSpace=wrap;html=1;" vertex="1" collapsed="1" parent="1">
          <mxGeometry x="180" y="229" width="130" height="30" as="geometry">
            <mxRectangle x="205" y="229" width="90" height="86" as="alternateBounds" />
          </mxGeometry>
        </mxCell>
        <mxCell id="O6znISRpKtvkZBTkOn_e-11" value="+ field: type" style="text;strokeColor=none;fillColor=none;align=left;verticalAlign=top;spacingLeft=4;spacingRight=4;overflow=hidden;rotatable=0;points=[[0,0.5],[1,0.5]];portConstraint=eastwest;whiteSpace=wrap;html=1;" vertex="1" parent="O6znISRpKtvkZBTkOn_e-10">
          <mxGeometry y="26" width="90" height="26" as="geometry" />
        </mxCell>
        <mxCell id="O6znISRpKtvkZBTkOn_e-12" value="" style="line;strokeWidth=1;fillColor=none;align=left;verticalAlign=middle;spacingTop=-1;spacingLeft=3;spacingRight=3;rotatable=0;labelPosition=right;points=[];portConstraint=eastwest;strokeColor=inherit;" vertex="1" parent="O6znISRpKtvkZBTkOn_e-10">
          <mxGeometry y="52" width="90" height="8" as="geometry" />
        </mxCell>
        <mxCell id="O6znISRpKtvkZBTkOn_e-13" value="+ method(type): type" style="text;strokeColor=none;fillColor=none;align=left;verticalAlign=top;spacingLeft=4;spacingRight=4;overflow=hidden;rotatable=0;points=[[0,0.5],[1,0.5]];portConstraint=eastwest;whiteSpace=wrap;html=1;" vertex="1" parent="O6znISRpKtvkZBTkOn_e-10">
          <mxGeometry y="60" width="90" height="26" as="geometry" />
        </mxCell>
        <mxCell id="O6znISRpKtvkZBTkOn_e-14" value="FileReader (Klasse)" style="swimlane;fontStyle=1;align=center;verticalAlign=top;childLayout=stackLayout;horizontal=1;startSize=26;horizontalStack=0;resizeParent=1;resizeParentMax=0;resizeLast=0;collapsible=1;marginBottom=0;whiteSpace=wrap;html=1;" vertex="1" collapsed="1" parent="1">
          <mxGeometry x="180" y="270" width="130" height="30" as="geometry">
            <mxRectangle x="205" y="229" width="90" height="86" as="alternateBounds" />
          </mxGeometry>
        </mxCell>
        <mxCell id="O6znISRpKtvkZBTkOn_e-15" value="+ field: type" style="text;strokeColor=none;fillColor=none;align=left;verticalAlign=top;spacingLeft=4;spacingRight=4;overflow=hidden;rotatable=0;points=[[0,0.5],[1,0.5]];portConstraint=eastwest;whiteSpace=wrap;html=1;" vertex="1" parent="O6znISRpKtvkZBTkOn_e-14">
          <mxGeometry y="26" width="90" height="26" as="geometry" />
        </mxCell>
        <mxCell id="O6znISRpKtvkZBTkOn_e-16" value="" style="line;strokeWidth=1;fillColor=none;align=left;verticalAlign=middle;spacingTop=-1;spacingLeft=3;spacingRight=3;rotatable=0;labelPosition=right;points=[];portConstraint=eastwest;strokeColor=inherit;" vertex="1" parent="O6znISRpKtvkZBTkOn_e-14">
          <mxGeometry y="52" width="90" height="8" as="geometry" />
        </mxCell>
        <mxCell id="O6znISRpKtvkZBTkOn_e-17" value="+ method(type): type" style="text;strokeColor=none;fillColor=none;align=left;verticalAlign=top;spacingLeft=4;spacingRight=4;overflow=hidden;rotatable=0;points=[[0,0.5],[1,0.5]];portConstraint=eastwest;whiteSpace=wrap;html=1;" vertex="1" parent="O6znISRpKtvkZBTkOn_e-14">
          <mxGeometry y="60" width="90" height="26" as="geometry" />
        </mxCell>
        <mxCell id="O6znISRpKtvkZBTkOn_e-20" style="edgeStyle=orthogonalEdgeStyle;rounded=0;orthogonalLoop=1;jettySize=auto;html=1;entryX=0;entryY=0.5;entryDx=0;entryDy=0;dashed=1;endArrow=open;endFill=0;" edge="1" parent="1" source="O6znISRpKtvkZBTkOn_e-18" target="O6znISRpKtvkZBTkOn_e-10">
          <mxGeometry relative="1" as="geometry">
            <Array as="points">
              <mxPoint x="120" y="244" />
            </Array>
          </mxGeometry>
        </mxCell>
        <mxCell id="O6znISRpKtvkZBTkOn_e-18" value="java.base/java.io.File" style="text;html=1;align=center;verticalAlign=middle;whiteSpace=wrap;rounded=0;" vertex="1" parent="1">
          <mxGeometry x="30" y="60" width="190" height="30" as="geometry" />
        </mxCell>
      </root>
    </mxGraphModel>
  </diagram>
</mxfile>
